# xmcd
#
# Track frame offsets:
#	150
#	10500
#	21527
#	37235
#	53512
#	68802
#	81545
#	94122
#	113185
#	125217
#
# Disc length: 1882 seconds
#
# Revision: 0
# Processed by: cddbd v1.4PL0 Copyright (c) Steve Scherf et al.
# Submitted via: EasyCDDAExtractor 4.5.0.2
#
DISCID=8807580a
DTITLE=John Michael Montgomery - Home To You
DYEAR=1900
DGENRE=
TTITLE0=Love Made Me Do It
TTITLE1=Hello L-O-V-E
TTITLE2=Home To You
TTITLE3=Your Love Lingers On
TTITLE4=You Are
TTITLE5=Sinkin' In
TTITLE6=Holdin' An Amazing Love
TTITLE7=When Your Arms Were Around
TTITLE8=Love Is Our Business
TTITLE9=Nothing Catches Jesus By Surprise
EXTD=
EXTT0=
EXTT1=
EXTT2=
EXTT3=
EXTT4=
EXTT5=
EXTT6=
EXTT7=
EXTT8=
EXTT9=
PLAYORDER=
